# xmcd
#
# Track frame offsets:
#	150
#	20983
#	38821
#	55098
#	73192
#	96534
#	116983
#	139122
#	155347
#	177898
#	200059
#	215282
#	235102
#	254755
#	269532
#	287626
#	309765
#	325990
#
# Disc length: 4622 seconds
#
# Revision: 0
# Processed by: cddbd v1.5.2PL0 Copyright (c) Steve Scherf et al.
# Submitted via: EasyCDDAExtractor 10.0.1.1
#
DISCID=1a120c12
DTITLE=Adolfo Suarez - Transicion democrática
DYEAR=1982
DGENRE=Blues
TTITLE0=Arriba Franco
TTITLE1=La madurez de los españoles
TTITLE2=La salud del caudillo
TTITLE3=Aristocracia y alto mando militar
TTITLE4=Atentado de Carrero Blanco
TTITLE5=Reinará Juan Carlos de Borbon
TTITLE6=Juramento de los ideales del régimen
TTITLE7=Reconocimiento de las monarquias europeas
TTITLE8=Ultima enfermedad de Franco
TTITLE9=Muerte de Franco
TTITLE10=Funerales de Franco
TTITLE11=Juan Carlos I sucesor
TTITLE12=Juramento de Juan Carlos I
TTITLE13=Preparando el 23-F
TTITLE14=Juan Carlos liderando el 23-F
TTITLE15=Estalla el 23-F
TTITLE16=Juan Carlos llama al ejército a obediencia
TTITLE17=Juan Carlos ya es aceptado por los españoles
EXTD=
EXTT0=
EXTT1=
EXTT2=
EXTT3=
EXTT4=
EXTT5=
EXTT6=
EXTT7=
EXTT8=
EXTT9=
EXTT10=
EXTT11=
EXTT12=
EXTT13=
EXTT14=
EXTT15=
EXTT16=
EXTT17=
PLAYORDER=
